{
    "asset" : {
        "generator" : "Khronos glTF Blender I/O v1.8.19",
        "version" : "2.0"
    },
    "scene" : 0,
    "scenes" : [
        {
            "name" : "Scene",
            "nodes" : [
                0,
                1
            ]
        }
    ],
    "nodes" : [
        {
            "name" : "Empty",
            "rotation" : [
                0.7071068286895752,
                0,
                0,
                0.7071067094802856
            ],
            "translation" : [
                1.1886757612228394,
                -0.012246169149875641,
                0
            ]
        },
        {
            "mesh" : 0,
            "name" : "Cylinder"
        }
    ],
    "meshes" : [
        {
            "name" : "Cylinder",
            "primitives" : [
                {
                    "attributes" : {
                        "POSITION" : 0,
                        "NORMAL" : 1,
                        "TEXCOORD_0" : 2
                    },
                    "indices" : 3
                }
            ]
        }
    ],
    "accessors" : [
        {
            "bufferView" : 0,
            "componentType" : 5126,
            "count" : 6638,
            "max" : [
                0.3221404254436493,
                1.6014485359191895,
                0.3221404254436493
            ],
            "min" : [
                -0.3221404552459717,
                0.034757018089294434,
                -0.3221404552459717
            ],
            "type" : "VEC3"
        },
        {
            "bufferView" : 1,
            "componentType" : 5126,
            "count" : 6638,
            "type" : "VEC3"
        },
        {
            "bufferView" : 2,
            "componentType" : 5126,
            "count" : 6638,
            "type" : "VEC2"
        },
        {
            "bufferView" : 3,
            "componentType" : 5123,
            "count" : 10092,
            "type" : "SCALAR"
        }
    ],
    "bufferViews" : [
        {
            "buffer" : 0,
            "byteLength" : 79656,
            "byteOffset" : 0
        },
        {
            "buffer" : 0,
            "byteLength" : 79656,
            "byteOffset" : 79656
        },
        {
            "buffer" : 0,
            "byteLength" : 53104,
            "byteOffset" : 159312
        },
        {
            "buffer" : 0,
            "byteLength" : 20184,
            "byteOffset" : 212416
        }
    ],
    "buffers" : [
        {
            "byteLength" : 232600,
            "uri" : "data:application/octet-stream;base64,"
        }
    ]
}
