{
    "asset" : {
        "generator" : "Khronos glTF Blender I/O v1.8.19",
        "version" : "2.0"
    },
    "scene" : 0,
    "scenes" : [
        {
            "name" : "Scene",
            "nodes" : [
                0,
                1
            ]
        }
    ],
    "nodes" : [
        {
            "name" : "Empty",
            "rotation" : [
                0.7071068286895752,
                0,
                0,
                0.7071067094802856
            ],
            "translation" : [
                -1.2958637475967407,
                -0.012246169149875641,
                0
            ]
        },
        {
            "mesh" : 0,
            "name" : "Cylinder",
            "rotation" : [
                0,
                -0.9672678709030151,
                0,
                -0.25375792384147644
            ],
            "translation" : [
                0,
                0,
                0.009999999776482582
            ]
        }
    ],
    "meshes" : [
        {
            "name" : "Cylinder",
            "primitives" : [
                {
                    "attributes" : {
                        "POSITION" : 0,
                        "NORMAL" : 1,
                        "TEXCOORD_0" : 2
                    },
                    "indices" : 3
                }
            ]
        }
    ],
    "accessors" : [
        {
            "bufferView" : 0,
            "componentType" : 5126,
            "count" : 2870,
            "max" : [
                0.36761724948883057,
                1.2886160612106323,
                0.3333422839641571
            ],
            "min" : [
                -0.3657754957675934,
                0.03475704789161682,
                -0.30916327238082886
            ],
            "type" : "VEC3"
        },
        {
            "bufferView" : 1,
            "componentType" : 5126,
            "count" : 2870,
            "type" : "VEC3"
        },
        {
            "bufferView" : 2,
            "componentType" : 5126,
            "count" : 2870,
            "type" : "VEC2"
        },
        {
            "bufferView" : 3,
            "componentType" : 5123,
            "count" : 4296,
            "type" : "SCALAR"
        }
    ],
    "bufferViews" : [
        {
            "buffer" : 0,
            "byteLength" : 34440,
            "byteOffset" : 0
        },
        {
            "buffer" : 0,
            "byteLength" : 34440,
            "byteOffset" : 34440
        },
        {
            "buffer" : 0,
            "byteLength" : 22960,
            "byteOffset" : 68880
        },
        {
            "buffer" : 0,
            "byteLength" : 8592,
            "byteOffset" : 91840
        }
    ],
    "buffers" : [
        {
            "byteLength" : 100432,
            "uri" : "data:application/octet-stream;base64,"
        }
    ]
}
