{
    "asset" : {
        "generator" : "Khronos glTF Blender I/O v1.8.19",
        "version" : "2.0"
    },
    "scene" : 0,
    "scenes" : [
        {
            "name" : "Scene",
            "nodes" : [
                0,
                1
            ]
        }
    ],
    "nodes" : [
        {
            "name" : "Empty",
            "rotation" : [
                0.7071068286895752,
                0,
                0,
                0.7071067094802856
            ],
            "translation" : [
                -2.096806764602661,
                -0.012246169149875641,
                0
            ]
        },
        {
            "mesh" : 0,
            "name" : "Cylinder"
        }
    ],
    "meshes" : [
        {
            "name" : "Cylinder",
            "primitives" : [
                {
                    "attributes" : {
                        "POSITION" : 0,
                        "NORMAL" : 1,
                        "TEXCOORD_0" : 2
                    },
                    "indices" : 3
                }
            ]
        }
    ],
    "accessors" : [
        {
            "bufferView" : 0,
            "componentType" : 5126,
            "count" : 4544,
            "max" : [
                0.27149245142936707,
                1.167207956314087,
                0.2714924216270447
            ],
            "min" : [
                -0.27149245142936707,
                0.034757018089294434,
                -0.27149245142936707
            ],
            "type" : "VEC3"
        },
        {
            "bufferView" : 1,
            "componentType" : 5126,
            "count" : 4544,
            "type" : "VEC3"
        },
        {
            "bufferView" : 2,
            "componentType" : 5126,
            "count" : 4544,
            "type" : "VEC2"
        },
        {
            "bufferView" : 3,
            "componentType" : 5123,
            "count" : 6900,
            "type" : "SCALAR"
        }
    ],
    "bufferViews" : [
        {
            "buffer" : 0,
            "byteLength" : 54528,
            "byteOffset" : 0
        },
        {
            "buffer" : 0,
            "byteLength" : 54528,
            "byteOffset" : 54528
        },
        {
            "buffer" : 0,
            "byteLength" : 36352,
            "byteOffset" : 109056
        },
        {
            "buffer" : 0,
            "byteLength" : 13800,
            "byteOffset" : 145408
        }
    ],
    "buffers" : [
        {
            "byteLength" : 159208,
            "uri" : "data:application/octet-stream;base64,"
        }
    ]
}
