{
    "asset" : {
        "generator" : "Khronos glTF Blender I/O v1.8.19",
        "version" : "2.0"
    },
    "scene" : 0,
    "scenes" : [
        {
            "name" : "Scene",
            "nodes" : [
                0,
                1,
                2
            ]
        }
    ],
    "nodes" : [
        {
            "name" : "Empty.001",
            "rotation" : [
                0.7071068286895752,
                0,
                0,
                0.7071067094802856
            ],
            "translation" : [
                1.9966200590133667,
                -0.012246169149875641,
                0
            ]
        },
        {
            "mesh" : 0,
            "name" : "Cylinder"
        },
        {
            "name" : "Empty",
            "rotation" : [
                0.7071068286895752,
                0,
                0,
                0.7071067094802856
            ],
            "translation" : [
                -1.2958637475967407,
                -0.012246169149875641,
                0
            ]
        }
    ],
    "materials" : [
        {
            "doubleSided" : true,
            "name" : "Material.001",
            "pbrMetallicRoughness" : {
                "baseColorFactor" : [
                    0.800000011920929,
                    0.800000011920929,
                    0.800000011920929,
                    1
                ],
                "metallicFactor" : 0,
                "roughnessFactor" : 0.5
            }
        }
    ],
    "meshes" : [
        {
            "name" : "Cylinder.001",
            "primitives" : [
                {
                    "attributes" : {
                        "POSITION" : 0,
                        "NORMAL" : 1,
                        "TEXCOORD_0" : 2
                    },
                    "indices" : 3,
                    "material" : 0
                }
            ]
        }
    ],
    "accessors" : [
        {
            "bufferView" : 0,
            "componentType" : 5126,
            "count" : 9344,
            "max" : [
                0.3221404254436493,
                1.526374340057373,
                0.3221404254436493
            ],
            "min" : [
                -0.3221404552459717,
                0.034757018089294434,
                -0.3221404552459717
            ],
            "type" : "VEC3"
        },
        {
            "bufferView" : 1,
            "componentType" : 5126,
            "count" : 9344,
            "type" : "VEC3"
        },
        {
            "bufferView" : 2,
            "componentType" : 5126,
            "count" : 9344,
            "type" : "VEC2"
        },
        {
            "bufferView" : 3,
            "componentType" : 5123,
            "count" : 9972,
            "type" : "SCALAR"
        }
    ],
    "bufferViews" : [
        {
            "buffer" : 0,
            "byteLength" : 112128,
            "byteOffset" : 0
        },
        {
            "buffer" : 0,
            "byteLength" : 112128,
            "byteOffset" : 112128
        },
        {
            "buffer" : 0,
            "byteLength" : 74752,
            "byteOffset" : 224256
        },
        {
            "buffer" : 0,
            "byteLength" : 19944,
            "byteOffset" : 299008
        }
    ],
    "buffers" : [
        {
            "byteLength" : 318952,
            "uri" : "data:application/octet-stream;base64,"
        }
    ]
}
